<svg xmlns="http://www.w3.org/2000/svg" viewBox="0 0 67.5 50.92"><defs><style>.cls-1{fill:#70d0af;}</style></defs><title>Contacts</title><g id="Layer_2" data-name="Layer 2"><g id="Layer_1-2" data-name="Layer 1"><path class="cls-1" d="M48.28,41.45A20.59,20.59,0,0,0,40,32.51a12.7,12.7,0,0,0,4.44.8,13.41,13.41,0,0,0,9.17-3.75c5.84,2.25,9.94,6.7,10.28,11.88ZM3.57,47.37C3.85,41.63,8.19,36.67,14.48,34a14.67,14.67,0,0,0,9.8,3.88,14.68,14.68,0,0,0,10.16-4.21c6.74,2.56,11.44,7.7,11.73,13.68Zm8.27-27.83c0-8.16,5.58-14.8,12.44-14.8s12.43,6.64,12.43,14.8-5.58,14.8-12.43,14.8S11.84,27.7,11.84,19.54ZM37,30.93l-.18-.08s0,0,0,0ZM44.47,3.55c6.05,0,11,5.88,11,13.1s-4.92,13.1-11,13.1a9.65,9.65,0,0,1-5.89-2.06,20.41,20.41,0,0,0,1.68-8.16A19.93,19.93,0,0,0,36.47,7.7,10.26,10.26,0,0,1,44.47,3.55ZM56,26.73a18.13,18.13,0,0,0,3-10.07C59,7.47,52.48,0,44.47,0A13.64,13.64,0,0,0,34.06,5.06a14.64,14.64,0,0,0-9.79-3.87c-8.81,0-16,8.23-16,18.35A20,20,0,0,0,12,31.28C4.82,34.7,0,40.89,0,48a10.36,10.36,0,0,0,.07,1.12l.16,1.84H49.52l.16-1.83c0-.37.06-.75.06-1.13a16.15,16.15,0,0,0-.31-3H67.29l.15-1.81a8.77,8.77,0,0,0,.06-1C67.5,35.54,62.86,29.77,56,26.73Z"/></g></g></svg>