<svg xmlns="http://www.w3.org/2000/svg" viewBox="0 0 90 82.16"><defs><style>.cls-1{fill:#4a83fa;}</style></defs><title>dialog</title><g id="Layer_2" data-name="Layer 2"><g id="Layer_1-2" data-name="Layer 1"><path class="cls-1" d="M0,36.42V11.77A11.62,11.62,0,0,1,11.43,0H59.94A11.62,11.62,0,0,1,71.37,11.77v1.15h-5V11.77A6.64,6.64,0,0,0,59.94,5H11.43A6.64,6.64,0,0,0,5,11.77V36.42a6.64,6.64,0,0,0,6.46,6.79h2.86L12,59.36l7.59-6.92h0a15.21,15.21,0,0,0,1.74,5.13L5.05,72.35,8.61,47.81h0A11.72,11.72,0,0,1,0,36.42ZM35,17.89H79.34A10.64,10.64,0,0,1,90,28.49V50.07A10.63,10.63,0,0,1,82.17,60.3l3.32,21.86L60.82,60.68H35A10.64,10.64,0,0,1,24.31,50.07V28.49A10.64,10.64,0,0,1,35,17.89Zm44.37,5H35a5.68,5.68,0,0,0-5.7,5.64V50.07A5.69,5.69,0,0,0,35,55.72H62.68L78.55,69.54l-2.1-13.82h2.89A5.69,5.69,0,0,0,85,50.07V28.49a5.68,5.68,0,0,0-5.7-5.64Z"/></g></g></svg>