<svg xmlns="http://www.w3.org/2000/svg" viewBox="0 0 54.77 54.76"><defs><style>.cls-1{fill:#5f6368;}</style></defs><title>Edit</title><g id="Layer_2" data-name="Layer 2"><g id="Layer_1-2" data-name="Layer 1"><path class="cls-1" d="M48.71,16.42l-1.09,1.1L37.23,7.12,38.35,6a5.26,5.26,0,0,1,7.42,0L48.71,9h0a5.23,5.23,0,0,1,0,7.46ZM7.36,39.67l7.71,7.72L5.2,49.54Zm1.86-4.5L34,10.34,44.41,20.7,19.57,45.53ZM51.89,5.79l-3-2.94h0a9.74,9.74,0,0,0-13.78,0L4.41,33.61a2.14,2.14,0,0,0-.61,1.11L.05,52a2.26,2.26,0,0,0,2.68,2.68L20.05,51a2.14,2.14,0,0,0,1.11-.61L51.91,19.6a9.74,9.74,0,0,0,0-13.81Z"/></g></g></svg>