<svg xmlns="http://www.w3.org/2000/svg" viewBox="0 0 48.45 48.45"><defs><style>.cls-1{fill:#fff;}</style></defs><title>Files_white</title><g id="Layer_2" data-name="Layer 2"><g id="Layer_1-2" data-name="Layer 1"><g id="Layer_1-2-2" data-name="Layer 1-2"><path class="cls-1" d="M3.75,44.62V36.07c1.57-1.87,8.1-8.92,17.62-3,5.4,3.38,10.2,4.5,14.18,4.5a20.59,20.59,0,0,0,9.15-2.1v9.15Zm41-40.87V31.12c-2.32,1.5-10.27,5.63-21.3-1.27-8.17-5.1-15.22-2.62-19.57.9v-27ZM46.58,0H1.88A1.85,1.85,0,0,0,0,1.82V46.57a1.86,1.86,0,0,0,1.84,1.88H46.57a1.87,1.87,0,0,0,1.88-1.86V1.88A1.86,1.86,0,0,0,46.61,0Z"/><path class="cls-1" d="M31.28,13.65a4,4,0,1,1-.05,0Zm0,11.92a7.8,7.8,0,1,0-7.8-7.8h0A7.84,7.84,0,0,0,31.28,25.57Z"/></g></g></g></svg>