<svg xmlns="http://www.w3.org/2000/svg" viewBox="0 0 56.88 72.02"><defs><style>.cls-1{fill:#70d0af;}</style></defs><title>Geolocation</title><g id="Layer_2" data-name="Layer 2"><g id="Layer_1-2" data-name="Layer 1"><path class="cls-1" d="M11.85,11.83A23.47,23.47,0,0,1,45,45c-.06.06-.12.14-.17.2L28.44,65.56,12,45.22a1.12,1.12,0,0,0-.17-.2A23.51,23.51,0,0,1,11.85,11.83ZM26.51,71.1a2.49,2.49,0,0,0,3.87,0L48.66,48.45a28.45,28.45,0,1,0-40.43,0Z"/><path class="cls-1" d="M28.44,19.83a8.28,8.28,0,1,1-8.27,8.28A8.28,8.28,0,0,1,28.44,19.83Zm0,21.53A13.26,13.26,0,1,0,15.19,28.1,13.27,13.27,0,0,0,28.44,41.36Z"/></g></g></svg>