<svg xmlns="http://www.w3.org/2000/svg" viewBox="0 0 75 75"><defs><style>.cls-1{fill:#4a83fa;}</style></defs><title>Intro</title><g id="Layer_2" data-name="Layer 2"><g id="Layer_1-2" data-name="Layer 1"><path class="cls-1" d="M2.09,37.5a3.57,3.57,0,1,0,3.57-3.57A3.57,3.57,0,0,0,2.09,37.5ZM0,37.5a5.67,5.67,0,0,1,11.24-1h7.34a1,1,0,0,1,0,2.07H11.24A5.67,5.67,0,0,1,0,37.5Z"/><path class="cls-1" d="M37.5,2.09a3.57,3.57,0,1,0,3.57,3.57A3.57,3.57,0,0,0,37.5,2.09ZM37.5,0a5.67,5.67,0,0,1,1,11.24v7.34a1,1,0,0,1-2.07,0V11.24A5.67,5.67,0,0,1,37.5,0Z"/><path class="cls-1" d="M37.5,31a2,2,0,1,0,2,2A2,2,0,0,0,37.5,31Zm0-2.1a4.06,4.06,0,1,1-4,4.06A4.07,4.07,0,0,1,37.5,28.94Z"/><path class="cls-1" d="M37.5,40.09c-2.35,0-5.28,1.3-5.69,3.87H43.19C42.78,41.38,39.85,40.09,37.5,40.09Zm0-2.09c3.42,0,7.81,2.37,7.81,6.17,0,.63,0,1.26,0,1.89H29.66c0-.66,0-1.31,0-2,0-3.76,4.44-6.1,7.81-6.1Z"/><path class="cls-1" d="M37.5,23.31A14.19,14.19,0,1,0,51.69,37.5,14.19,14.19,0,0,0,37.5,23.31Zm0-2.1A16.29,16.29,0,1,1,21.21,37.5,16.3,16.3,0,0,1,37.5,21.21Z"/><path class="cls-1" d="M62.53,12.47a3.57,3.57,0,1,0,0,5A3.56,3.56,0,0,0,62.53,12.47ZM64,11a5.67,5.67,0,0,1-7.22,8.68l-5.19,5.19a1,1,0,0,1-1.46-1.46l5.19-5.19A5.67,5.67,0,0,1,64,11Z"/><path class="cls-1" d="M72.91,37.5a3.57,3.57,0,1,0-3.57,3.57A3.57,3.57,0,0,0,72.91,37.5Zm2.09,0a5.67,5.67,0,0,1-11.24,1H56.42a1,1,0,0,1,0-2.07h7.34A5.67,5.67,0,0,1,75,37.5Z"/><path class="cls-1" d="M62.53,62.53a3.57,3.57,0,1,0-5.05,0A3.56,3.56,0,0,0,62.53,62.53ZM64,64a5.67,5.67,0,0,1-8.68-7.22l-5.19-5.19a1,1,0,0,1,1.46-1.46l5.19,5.19A5.67,5.67,0,0,1,64,64Z"/><path class="cls-1" d="M12.47,62.53a3.57,3.57,0,1,0,0-5.05A3.56,3.56,0,0,0,12.47,62.53ZM11,64a5.67,5.67,0,0,1,7.22-8.68l5.19-5.19a1,1,0,0,1,1.46,1.46L19.66,56.8A5.67,5.67,0,0,1,11,64Z"/><path class="cls-1" d="M12.47,12.47a3.57,3.57,0,1,0,5,0A3.56,3.56,0,0,0,12.47,12.47ZM11,11a5.67,5.67,0,0,1,8.68,7.22l5.19,5.19a1,1,0,0,1-1.46,1.46L18.2,19.66A5.67,5.67,0,0,1,11,11Z"/><polygon class="cls-1" points="10.34 52.19 12.28 51.39 13.08 53.33 11.15 54.13 11.15 54.13 10.34 52.19"/><rect class="cls-1" x="9.06" y="47.84" width="2.09" height="2.1" transform="translate(-17.92 7.58) rotate(-22.47)"/><rect class="cls-1" x="7.46" y="43.97" width="2.1" height="2.1" transform="translate(-16.63 6.71) rotate(-22.57)"/><polygon class="cls-1" points="7.91 28.69 9.84 29.49 9.04 31.43 7.11 30.63 7.11 30.63 7.91 28.69"/><rect class="cls-1" x="9.03" y="25.14" width="2.1" height="2.1" transform="translate(-17.97 25.49) rotate(-67.53)"/><polygon class="cls-1" points="11.12 20.95 13.05 21.75 12.25 23.68 10.34 22.89 10.31 22.88 11.12 20.95"/><polygon class="cls-1" points="22.81 10.34 23.61 12.28 21.67 13.08 20.88 11.15 20.87 11.15 22.81 10.34"/><rect class="cls-1" x="25.06" y="9.06" width="2.1" height="2.09" transform="translate(-1.88 10.75) rotate(-22.47)"/><polygon class="cls-1" points="30.55 7.14 31.35 9.07 29.41 9.88 28.65 8.02 28.61 7.94 30.55 7.14"/><polygon class="cls-1" points="46.31 7.91 45.51 9.84 43.57 9.04 44.38 7.11 44.38 7.11 46.31 7.91"/><rect class="cls-1" x="47.77" y="9.03" width="2.1" height="2.1" transform="translate(20.85 51.34) rotate(-67.53)"/><polygon class="cls-1" points="54.05 11.12 53.25 13.05 51.32 12.25 52.13 10.29 52.12 10.31 54.05 11.12"/><polygon class="cls-1" points="64.66 22.81 62.72 23.61 61.92 21.67 63.85 20.88 63.85 20.87 64.66 22.81"/><rect class="cls-1" x="63.84" y="25.06" width="2.09" height="2.1" transform="translate(-5.05 26.79) rotate(-22.47)"/><polygon class="cls-1" points="67.86 30.55 65.93 31.35 65.13 29.41 67.05 28.62 67.06 28.61 67.86 30.55"/><polygon class="cls-1" points="67.09 46.31 65.16 45.51 65.96 43.57 67.89 44.38 67.89 44.38 67.09 46.31"/><rect class="cls-1" x="63.87" y="47.77" width="2.1" height="2.1" transform="matrix(0.38, -0.92, 0.92, 0.38, -5, 90.15)"/><polygon class="cls-1" points="63.88 54.05 61.95 53.25 62.75 51.32 64.7 52.13 64.69 52.12 63.88 54.05"/><polygon class="cls-1" points="52.19 64.66 51.39 62.72 53.33 61.92 54.13 63.85 54.13 63.85 52.19 64.66"/><rect class="cls-1" x="47.84" y="63.84" width="2.1" height="2.09" transform="translate(-21.09 23.61) rotate(-22.47)"/><rect class="cls-1" x="43.97" y="65.45" width="2.1" height="2.1" transform="translate(-22.07 22.37) rotate(-22.57)"/><polygon class="cls-1" points="28.69 67.09 29.49 65.16 31.43 65.96 30.63 67.89 30.63 67.89 28.69 67.09"/><rect class="cls-1" x="25.14" y="63.87" width="2.1" height="2.1" transform="matrix(0.38, -0.92, 0.92, 0.38, -43.82, 64.31)"/><rect class="cls-1" x="21.27" y="62.27" width="2.1" height="2.1" transform="translate(-44.72 59.71) rotate(-67.5)"/><path class="cls-1" d="M37.5,72.91a3.57,3.57,0,1,0-3.57-3.57A3.57,3.57,0,0,0,37.5,72.91Zm0,2.09a5.67,5.67,0,0,1-1-11.24V56.42a1,1,0,0,1,2.07,0v7.34A5.67,5.67,0,0,1,37.5,75Z"/></g></g></svg>