<svg xmlns="http://www.w3.org/2000/svg" viewBox="0 0 65.92 56.85"><defs><style>.cls-1{fill:#f96281;}</style></defs><title>Likes</title><g id="Layer_2" data-name="Layer 2"><g id="Layer_1-2" data-name="Layer 1"><path class="cls-1" d="M57.37,27.6,32.93,51.45,8.5,27.6a13.27,13.27,0,0,1,0-19.13,14.22,14.22,0,0,1,19.74,0l3.12,3h0a2.25,2.25,0,0,0,3.14,0l3.12-3h0a14.24,14.24,0,0,1,19.72,0,13.28,13.28,0,0,1,0,19.1ZM60.52,5.25a18.77,18.77,0,0,0-26,0L33,6.75l-1.55-1.5h0a18.76,18.76,0,0,0-26,0,17.79,17.79,0,0,0,0,25.57L31.36,56.21a2.25,2.25,0,0,0,3.14,0l26-25.4a17.8,17.8,0,0,0,0-25.56Z"/></g></g></svg>