<svg xmlns="http://www.w3.org/2000/svg" viewBox="0 0 52.5 38.18"><defs><style>.cls-1{fill:#fff;}</style></defs><title>Photo_white</title><g id="Layer_2" data-name="Layer 2"><g id="Layer_1-2" data-name="Layer 1"><path class="cls-1" d="M48,33.68H4.5V10.8H9.83a2.26,2.26,0,0,0,2.25-2l.23-2.17h0a2.4,2.4,0,0,1,2.41-2.17H37.8a2.4,2.4,0,0,1,2.33,2.25l.22,2.1h0a2.26,2.26,0,0,0,2.25,2H48Zm4.5,2.25V8.55A2.32,2.32,0,0,0,50.25,6.3H44.63A6.82,6.82,0,0,0,37.8,0H14.71A6.9,6.9,0,0,0,7.8,6.3H2.25A2.25,2.25,0,0,0,0,8.55V35.93a2.19,2.19,0,0,0,2.25,2.25h48A2.25,2.25,0,0,0,52.5,35.93Z"/><path class="cls-1" d="M26.25,27.45a7.88,7.88,0,1,1,7.88-7.88A7.88,7.88,0,0,1,26.25,27.45Zm0-20.25A12.38,12.38,0,1,0,38.63,19.57,12.39,12.39,0,0,0,26.25,7.2Z"/><path class="cls-1" d="M44.18,16.57A1.88,1.88,0,1,0,42.85,16,1.86,1.86,0,0,0,44.18,16.57Z"/></g></g></svg>