<svg xmlns="http://www.w3.org/2000/svg" viewBox="0 0 43.75 59.37"><defs><style>.cls-1{fill:#8b81c5;}</style></defs><title>Tasks</title><g id="Layer_2" data-name="Layer 2"><g id="Layer_1-2" data-name="Layer 1"><path class="cls-1" d="M9.38,46.87V50h25V46.87Zm0-9.38v3.13h25V37.49ZM27.29,20.25l-7.45,7.89-3.51-3.31L14.18,27.1,20,32.56,29.57,22.4ZM4,9.28H9.4V11A4.64,4.64,0,0,0,14,15.62H29.71A4.67,4.67,0,0,0,34.35,11V9.28h5.42a.91.91,0,0,1,.94,1V55.38a.91.91,0,0,1-.94.95H4A.91.91,0,0,1,3,55.38V10.23A.91.91,0,0,1,4,9.28ZM20.33,3.12h3.13c.14,0,.08,0,.11,0a1.56,1.56,0,0,1,.29.36,9.33,9.33,0,0,0,1.61,2.27l.17.17,5.59,2.67V11a1.48,1.48,0,0,1-1.52,1.51H14A1.81,1.81,0,0,1,12.52,11V8.83L17.93,6a5,5,0,0,0,2.12-2.47,2.16,2.16,0,0,1,.28-.42Zm0-3.12a3.15,3.15,0,0,0-2,.77,4.76,4.76,0,0,0-.94,1.28c-.41.76-.63,1.1-.82,1.2l-5.78,3H4a4,4,0,0,0-4,4V55.38a4,4,0,0,0,4,4H39.77a4,4,0,0,0,4-4V10.23a4,4,0,0,0-4-4H33.52l-6-2.86a14,14,0,0,1-1-1.57A4.12,4.12,0,0,0,25.4.61,3.39,3.39,0,0,0,23.46,0Z"/></g></g></svg>